<svg width="63" height="64" viewBox="0 0 63 64" fill="none" xmlns="http://www.w3.org/2000/svg">
<path d="M55.125 29.3333V24H49.875V18.6667C49.8708 17.2535 49.3164 15.8994 48.3327 14.9001C47.3491 13.9008 46.0161 13.3376 44.625 13.3333H39.375V8H34.125V13.3333H28.875V8H23.625V13.3333H18.375C16.9839 13.3376 15.6509 13.9008 14.6673 14.9001C13.6836 15.8994 13.1292 17.2535 13.125 18.6667V24H7.875V29.3333H13.125V34.6667H7.875V40H13.125V45.3333C13.1292 46.7465 13.6836 48.1006 14.6673 49.0999C15.6509 50.0992 16.9839 50.6624 18.375 50.6667H23.625V56H28.875V50.6667H34.125V56H39.375V50.6667H44.625C46.0161 50.6624 47.3491 50.0992 48.3327 49.0999C49.3164 48.1006 49.8708 46.7465 49.875 45.3333V40H55.125V34.6667H49.875V29.3333H55.125ZM44.625 45.3333H18.375V18.6667H44.625V45.3333Z" fill="#A01016"/>
<path d="M29.8227 21.3333H26.2921L21.0159 42.6667H23.7117L24.9297 37.6667H31.0092L32.1957 42.6667H34.9835L29.8227 21.3333ZM25.2841 35.5307L27.9564 23.8667H28.0771L30.6575 35.5307H25.2841ZM37.3906 21.3333H40.0156V42.6667H37.3906V21.3333Z" fill="#A01016"/>
</svg>
