<svg width="26" height="23" viewBox="0 0 26 23" fill="none" xmlns="http://www.w3.org/2000/svg">
<path d="M7.85289 11.7298L2.8603 7.15566C0.894813 9.11873 0.149997 11.0853 0.137067 11.1256L0 11.5L0.135774 11.8744C0.164221 11.9537 3.13055 19.793 13.0006 19.793C14.2019 19.793 15.2959 19.6721 16.3006 19.4696L12.7498 16.2163C11.4713 16.1589 10.2618 15.6678 9.35672 14.8385C8.4516 14.0093 7.91556 12.9012 7.85289 11.7298ZM13.0006 3.20702C10.602 3.20702 8.63649 3.68564 6.99816 4.38936L2.20729 0L0.378873 1.67518L23.6543 23L25.4828 21.3248L21.2182 17.4176C24.6293 15.1039 25.8461 11.9241 25.8642 11.8744L26 11.5L25.8642 11.1256C25.8358 11.0463 22.8707 3.20702 13.0006 3.20702ZM15.4653 12.1469C15.7071 11.3448 15.5015 10.4421 14.8291 9.82482C14.1567 9.20758 13.17 9.0204 12.2946 9.24194L10.3447 7.45539C11.1437 7.00518 12.0626 6.76501 13.0006 6.76115C15.8532 6.76115 18.173 8.88652 18.173 11.5C18.1691 12.3593 17.9065 13.2009 17.4139 13.9322L15.4653 12.1469Z" fill="#A5A5A5" fill-opacity="0.7"/>
</svg>
