<svg width="14" height="18" viewBox="0 0 14 18" fill="none" xmlns="http://www.w3.org/2000/svg">
<path d="M7.2045 9.58893C8.50601 9.58893 9.5611 8.53384 9.5611 7.23233C9.5611 5.93082 8.50601 4.87573 7.2045 4.87573C5.90299 4.87573 4.8479 5.93082 4.8479 7.23233C4.8479 8.53384 5.90299 9.58893 7.2045 9.58893Z" stroke="#FFCC4A" stroke-linecap="round" stroke-linejoin="round"/>
<path d="M13.096 7.23256C13.096 12.5349 7.20448 16.6589 7.20448 16.6589C7.20448 16.6589 1.31299 12.5349 1.31299 7.23256C1.31299 5.67004 1.9337 4.17151 3.03857 3.06664C4.14344 1.96177 5.64196 1.34106 7.20448 1.34106C8.767 1.34106 10.2655 1.96177 11.3704 3.06664C12.4753 4.17151 13.096 5.67004 13.096 7.23256V7.23256Z" stroke="#FFCC4A" stroke-linecap="round" stroke-linejoin="round"/>
</svg>
