<svg width="19" height="19" viewBox="0 0 19 19" fill="none" xmlns="http://www.w3.org/2000/svg">
<path d="M13.1366 2.43415C14.1292 2.437 15.0803 2.8177 15.7822 3.4931C16.4841 4.1685 16.8797 5.08372 16.8827 6.03887V13.2475C16.8797 14.2027 16.4841 15.1179 15.7822 15.7933C15.0803 16.4687 14.1292 16.8494 13.1366 16.8523H5.64534C4.65274 16.8494 3.70164 16.4687 2.99976 15.7933C2.29788 15.1179 1.90226 14.2027 1.8993 13.2475V6.03887C1.90226 5.08372 2.29788 4.1685 2.99976 3.4931C3.70164 2.8177 4.65274 2.437 5.64534 2.43415H13.1366ZM13.1366 0.992493H5.64534C2.76096 0.992493 0.401123 3.2633 0.401123 6.03887V13.2475C0.401123 16.0231 2.76096 18.2939 5.64534 18.2939H13.1366C16.021 18.2939 18.3808 16.0231 18.3808 13.2475V6.03887C18.3808 3.2633 16.021 0.992493 13.1366 0.992493Z" fill="white"/>
<path d="M14.2603 6.0392C14.038 6.0392 13.8208 5.97579 13.636 5.85697C13.4512 5.73815 13.3072 5.56926 13.2221 5.37168C13.137 5.17409 13.1148 4.95667 13.1582 4.74691C13.2015 4.53715 13.3085 4.34447 13.4657 4.19324C13.6229 4.04202 13.8231 3.93903 14.0411 3.8973C14.259 3.85558 14.485 3.87699 14.6903 3.95884C14.8957 4.04068 15.0712 4.17928 15.1946 4.35711C15.3181 4.53493 15.384 4.744 15.384 4.95787C15.3843 5.09995 15.3555 5.24071 15.2991 5.37204C15.2428 5.50337 15.16 5.6227 15.0556 5.72317C14.9512 5.82364 14.8272 5.90328 14.6907 5.95751C14.5542 6.01175 14.408 6.03951 14.2603 6.0392ZM9.39092 6.75984C9.98363 6.75984 10.563 6.92897 11.0558 7.24583C11.5486 7.5627 11.9327 8.01307 12.1596 8.54C12.3864 9.06692 12.4457 9.64674 12.3301 10.2061C12.2145 10.7655 11.9291 11.2793 11.5099 11.6826C11.0908 12.0859 10.5569 12.3606 9.97556 12.4718C9.39425 12.5831 8.7917 12.526 8.24412 12.3077C7.69653 12.0895 7.2285 11.7199 6.89922 11.2456C6.56993 10.7714 6.39417 10.2139 6.39417 9.64354C6.39502 8.87899 6.71102 8.14598 7.27284 7.60536C7.83466 7.06474 8.5964 6.76066 9.39092 6.75984ZM9.39092 5.31818C8.50191 5.31818 7.63286 5.57186 6.89368 6.04714C6.15449 6.52241 5.57836 7.19794 5.23815 7.9883C4.89794 8.77865 4.80893 9.64834 4.98237 10.4874C5.1558 11.3264 5.5839 12.0971 6.21253 12.702C6.84116 13.3069 7.64208 13.7189 8.51401 13.8858C9.38594 14.0527 10.2897 13.967 11.1111 13.6396C11.9324 13.3123 12.6344 12.7579 13.1283 12.0466C13.6222 11.3353 13.8859 10.499 13.8859 9.64354C13.8859 8.49638 13.4123 7.39621 12.5693 6.58505C11.7264 5.77389 10.5831 5.31818 9.39092 5.31818Z" fill="white"/>
</svg>
