<svg width="30" height="28" viewBox="0 0 30 28" fill="none" xmlns="http://www.w3.org/2000/svg">
<path d="M17.1429 17H23.5714V19H17.1429V17ZM17.1429 13H30V15H17.1429V13ZM17.1429 9H30V11H17.1429V9ZM12.8571 19V17H7.5V15H5.35714V17H0V19H8.80179C8.40796 20.5008 7.58773 21.8747 6.4275 22.977C5.8193 22.3849 5.29797 21.7201 4.87714 21H2.49964C3.04421 22.2205 3.82306 23.3378 4.79786 24.297C3.64936 25.0604 2.39595 25.6759 1.07143 26.127L1.82357 28C3.47193 27.4396 5.02122 26.6522 6.42 25.664C7.82498 26.6528 9.38036 27.4402 11.0346 28L11.7857 26.127C10.4618 25.6767 9.20874 25.0622 8.06036 24.3C9.57275 22.8405 10.5899 20.9968 10.9843 19H12.8571ZM9.82179 11H12.1425L7.23214 0H4.91036L0 11H2.32071L3.21429 9H8.92822L9.82179 11ZM4.10679 7L6.07071 2.6L8.03571 7H4.10679Z" fill="#CCCCCC"/>
</svg>
