<svg width="33" height="35" viewBox="0 0 33 35" fill="none" xmlns="http://www.w3.org/2000/svg">
<path d="M16.5001 18.4333C16.009 18.4354 15.5322 18.6084 15.1428 18.9258C14.7535 19.2433 14.4732 19.6876 14.3452 20.1904C14.2171 20.6932 14.2482 21.2267 14.4339 21.7089C14.6195 22.1911 14.9493 22.5953 15.3726 22.8594V26.25H17.6551V22.8594C17.99 22.6493 18.268 22.3508 18.4619 21.9931C18.6559 21.6353 18.7592 21.2304 18.762 20.8177C18.762 20.5034 18.7034 20.1921 18.5895 19.9019C18.4757 19.6116 18.3089 19.3481 18.0987 19.1265C17.8885 18.9049 17.639 18.7296 17.3647 18.6106C17.0903 18.4917 16.7965 18.4314 16.5001 18.4333Z" stroke="#A5A5A5" stroke-width="2" stroke-linecap="round" stroke-linejoin="round"/>
<path d="M24.9494 12.9573H8.04373C6.40344 12.9573 5.07373 14.3676 5.07373 16.1073V28.5687C5.07373 30.3084 6.40344 31.7187 8.04373 31.7187H24.9494C26.5896 31.7187 27.9194 30.3084 27.9194 28.5687V16.1073C27.9194 14.3676 26.5896 12.9573 24.9494 12.9573Z" stroke="#A5A5A5" stroke-width="2" stroke-linecap="round" stroke-linejoin="round"/>
<path d="M9.17822 12.9573V11.0542C9.17822 8.99266 9.95036 7.01559 11.3248 5.55788C12.6992 4.10018 14.5633 3.28125 16.507 3.28125C18.4507 3.28125 20.3148 4.10018 21.6892 5.55788C23.0636 7.01559 23.8357 8.99266 23.8357 11.0542V12.9573" stroke="#A5A5A5" stroke-width="2" stroke-linecap="round" stroke-linejoin="round"/>
</svg>
