<svg width="32" height="30" viewBox="0 0 32 30" fill="none" xmlns="http://www.w3.org/2000/svg">
<path d="M1 4.17346H7.66667M31 4.17346H14.3333M1 15.0623H21M31 15.0623H27.6667M1 25.9512H4.33333M31 25.9512H11" stroke="#CCCCCC" stroke-width="2" stroke-linecap="round"/>
<path d="M11 7.2222C12.841 7.2222 14.3334 5.82931 14.3334 4.1111C14.3334 2.39289 12.841 1 11 1C9.15907 1 7.66669 2.39289 7.66669 4.1111C7.66669 5.82931 9.15907 7.2222 11 7.2222Z" stroke="#CCCCCC" stroke-width="2" stroke-linecap="round"/>
<path d="M24.3333 18.111C26.1743 18.111 27.6667 16.7181 27.6667 14.9999C27.6667 13.2817 26.1743 11.8888 24.3333 11.8888C22.4924 11.8888 21 13.2817 21 14.9999C21 16.7181 22.4924 18.111 24.3333 18.111Z" stroke="#CCCCCC" stroke-width="2" stroke-linecap="round"/>
<path d="M7.66665 29C9.5076 29 11 27.6071 11 25.8889C11 24.1707 9.5076 22.7778 7.66665 22.7778C5.8257 22.7778 4.33331 24.1707 4.33331 25.8889C4.33331 27.6071 5.8257 29 7.66665 29Z" stroke="#CCCCCC" stroke-width="2" stroke-linecap="round"/>
</svg>
