<svg width="18" height="18" viewBox="0 0 18 18" fill="none" xmlns="http://www.w3.org/2000/svg">
<path d="M16.0817 4.13084C15.1095 3.94446 14.23 3.49438 13.5694 2.84518C12.9089 2.19598 12.5012 1.38104 12.4049 0.517297V0.143188H9.04015V11.766C9.04083 12.2818 8.85537 12.7846 8.51003 13.2033C8.16469 13.6221 7.67698 13.9355 7.11599 14.0991C6.555 14.2628 5.94916 14.2684 5.3843 14.1152C4.81944 13.962 4.32419 13.6577 3.9687 13.2455C3.65023 12.8806 3.45521 12.4453 3.40571 11.9888C3.3562 11.5323 3.45419 11.0729 3.68858 10.6624C3.92298 10.252 4.28443 9.90687 4.73207 9.66616C5.1797 9.42545 5.69566 9.29873 6.2216 9.30034C6.51246 9.29889 6.80188 9.33616 7.07984 9.41087V6.43501C6.75638 6.40008 6.43041 6.38588 6.10456 6.3925C4.9043 6.42045 3.73944 6.75294 2.75262 7.34925C1.76579 7.94556 0.999851 8.77979 0.548576 9.74981C0.0973017 10.7198 -0.0197162 11.7835 0.211852 12.8106C0.443421 13.8377 1.01352 14.7837 1.85235 15.5326C2.71205 16.2946 3.81216 16.8166 5.01293 17.0323C6.21369 17.248 7.4609 17.1476 8.59607 16.7439C9.73124 16.3402 10.7031 15.6514 11.3883 14.7651C12.0734 13.8787 12.4408 12.8349 12.4439 11.766V5.81433C13.8009 6.65943 15.4282 7.1115 17.0959 7.1067V4.21587C16.7684 4.21704 16.4415 4.18855 16.1207 4.13084H16.0817Z" fill="white"/>
</svg>
