<svg width="30" height="33" viewBox="0 0 30 33" fill="none" xmlns="http://www.w3.org/2000/svg">
<path d="M15 17.1111C16.9891 17.1111 18.8968 16.3385 20.3033 14.9632C21.7098 13.588 22.5 11.7227 22.5 9.77778C22.5 7.83286 21.7098 5.9676 20.3033 4.59233C18.8968 3.21706 16.9891 2.44444 15 2.44444C13.0109 2.44444 11.1032 3.21706 9.6967 4.59233C8.29018 5.9676 7.5 7.83286 7.5 9.77778C7.5 11.7227 8.29018 13.588 9.6967 14.9632C11.1032 16.3385 13.0109 17.1111 15 17.1111ZM15 19.5556C12.3478 19.5556 9.8043 18.5254 7.92893 16.6917C6.05357 14.858 5 12.371 5 9.77778C5 7.18455 6.05357 4.69753 7.92893 2.86384C9.8043 1.03016 12.3478 0 15 0C17.6522 0 20.1957 1.03016 22.0711 2.86384C23.9464 4.69753 25 7.18455 25 9.77778C25 12.371 23.9464 14.858 22.0711 16.6917C20.1957 18.5254 17.6522 19.5556 15 19.5556ZM27.5 31.7778V28.1111C27.5 27.1387 27.1049 26.206 26.4017 25.5184C25.6984 24.8308 24.7446 24.4444 23.75 24.4444H6.25C5.25544 24.4444 4.30161 24.8308 3.59835 25.5184C2.89509 26.206 2.5 27.1387 2.5 28.1111V31.7778C2.5 32.1019 2.3683 32.4128 2.13388 32.642C1.89946 32.8712 1.58152 33 1.25 33C0.918479 33 0.600537 32.8712 0.366117 32.642C0.131696 32.4128 0 32.1019 0 31.7778V28.1111C0 26.4903 0.65848 24.936 1.83058 23.7899C3.00269 22.6438 4.5924 22 6.25 22H23.75C25.4076 22 26.9973 22.6438 28.1694 23.7899C29.3415 24.936 30 26.4903 30 28.1111V31.7778C30 32.1019 29.8683 32.4128 29.6339 32.642C29.3995 32.8712 29.0815 33 28.75 33C28.4185 33 28.1005 32.8712 27.8661 32.642C27.6317 32.4128 27.5 32.1019 27.5 31.7778Z" fill="#D75F5A"/>
</svg>
