<svg width="21" height="18" viewBox="0 0 21 18" fill="none" xmlns="http://www.w3.org/2000/svg">
<path d="M10.1603 0.143188H10.2716C11.2991 0.147726 16.5057 0.193104 17.9096 0.649906C18.334 0.78932 18.7207 1.06106 19.0311 1.43798C19.3415 1.81489 19.5647 2.28378 19.6784 2.79778C19.8047 3.37257 19.8934 4.1334 19.9534 4.91844L19.9659 5.07575L19.9934 5.46902L20.0034 5.62633C20.0847 7.00883 20.0947 8.30361 20.0959 8.58647V8.69991C20.0947 8.99335 20.0834 10.3759 19.9934 11.8158L19.9834 11.9747L19.9722 12.132C19.9097 12.9972 19.8172 13.8563 19.6784 14.4886C19.565 15.0028 19.3419 15.4719 19.0315 15.8489C18.721 16.2259 18.3341 16.4975 17.9096 16.6365C16.4595 17.1084 10.9479 17.1417 10.1841 17.1432H10.0066C9.62029 17.1432 8.02269 17.1341 6.34759 17.0645L6.13508 17.0555L6.02632 17.0494L5.81255 17.0388L5.59879 17.0282C4.2112 16.9541 2.88987 16.8346 2.28108 16.635C1.85667 16.4961 1.46986 16.2247 1.15942 15.848C0.848974 15.4713 0.625789 15.0025 0.512223 14.4886C0.373465 13.8578 0.280959 12.9972 0.218455 12.132L0.208454 11.9732L0.198454 11.8158C0.136759 10.7909 0.102573 9.76383 0.0959473 8.73621L0.0959473 8.55016C0.0984474 8.22496 0.108448 7.1011 0.175952 5.86078L0.184703 5.70498L0.188453 5.62633L0.198454 5.46902L0.225955 5.07575L0.238456 4.91844C0.29846 4.1334 0.387215 3.37106 0.513473 2.79778C0.626848 2.28358 0.849947 1.81447 1.16041 1.43748C1.47086 1.0605 1.85777 0.788902 2.28233 0.649906C2.89112 0.45327 4.21245 0.332262 5.60004 0.256633L5.81255 0.246045L6.02757 0.236969L6.13508 0.232431L6.34884 0.221843C7.53855 0.17552 8.72874 0.149803 9.91906 0.144701H10.1603V0.143188ZM8.09645 4.9986V12.2863L13.293 8.64394L8.09645 4.9986Z" fill="white"/>
</svg>
